<svg xmlns="http://www.w3.org/2000/svg" viewBox="0 0 2208 2208" width="2208" height="2208">
    <defs>
        <linearGradient id="bgGrad" x1="0%" y1="0%" x2="0%" y2="100%">
            <stop offset="0%" stop-color="#070E1A" />
            <stop offset="40%" stop-color="#0B1528" />
            <stop offset="70%" stop-color="#0F2347" />
            <stop offset="100%" stop-color="#020408" />
        </linearGradient>
        
        <linearGradient id="primaryGrad" x1="0%" y1="100%" x2="100%" y2="0%">
            <stop offset="0%" stop-color="#3B82F6" />
            <stop offset="100%" stop-color="#00FFFF" />
        </linearGradient>

        <radialGradient id="largeGlow" cx="50%" cy="45%" r="40%">
            <stop offset="0%" stop-color="#00FFFF" stop-opacity="0.18" />
            <stop offset="100%" stop-color="#00FFFF" stop-opacity="0" />
        </radialGradient>
        
        <filter id="dropShadow" x="-20%" y="-20%" width="140%" height="140%">
            <feDropShadow dx="0" dy="24" stdDeviation="32" flood-color="#000000" flood-opacity="0.7"/>
        </filter>
    </defs>

    <rect width="2208" height="2208" fill="url(#bgGrad)"/>

    <g stroke="#3B82F6" stroke-width="4" opacity="0.15" stroke-dasharray="12,12">
        <line x1="1104" y1="400" x2="500" y2="750" />
        <line x1="1104" y1="400" x2="1708" y2="750" />
        <line x1="500" y1="750" x2="500" y2="1350" />
        <line x1="1708" y1="750" x2="1708" y2="1350" />
        <line x1="500" y1="1350" x2="1104" y2="1700" />
        <line x1="1708" y1="1350" x2="1104" y2="1700" />
        
        <line x1="1104" y1="400" x2="1104" y2="1700" />
        <line x1="500" y1="750" x2="1708" y2="1350" />
        <line x1="500" y1="1350" x2="1708" y2="750" />
        
        <line x1="250" y1="1050" x2="500" y2="750" />
        <line x1="250" y1="1050" x2="500" y2="1350" />
        <line x1="1958" y1="1050" x2="1708" y2="750" />
        <line x1="1958" y1="1050" x2="1708" y2="1350" />
    </g>

    <g fill="#3B82F6" opacity="0.4">
        <circle cx="1104" cy="400" r="24" fill="#00FFFF" />
        <circle cx="500" cy="750" r="18" />
        <circle cx="1708" cy="750" r="18" />
        <circle cx="500" cy="1350" r="18" />
        <circle cx="1708" cy="1350" r="18" />
        <circle cx="1104" cy="1700" r="24" fill="#00FFFF" />
        <circle cx="250" cy="1050" r="14" />
        <circle cx="1958" cy="1050" r="14" />
    </g>

    <circle cx="1104" cy="950" r="550" fill="url(#largeGlow)" />

    <circle cx="1104" cy="950" r="340" fill="#0F2347" fill-opacity="0.4" stroke="url(#primaryGrad)" stroke-width="10" filter="url(#dropShadow)" />

    <g fill="none" stroke="url(#primaryGrad)" stroke-width="48" stroke-linecap="round" stroke-linejoin="round">
        <path d="M 980 800 C 840 800, 840 930, 980 945 C 1120 960, 1120 1090, 980 1100" />
        <path d="M 1170 1100 L 1170 800 L 1270 950 L 1370 800 L 1370 1100" />
    </g>

    <circle cx="980" cy="800" r="20" fill="#00FFFF" />
    <circle cx="980" cy="1100" r="20" fill="#3B82F6" />
    <circle cx="1170" cy="800" r="20" fill="#3B82F6" />
    <circle cx="1370" cy="800" r="20" fill="#00FFFF" />
    <circle cx="1370" cy="1100" r="20" fill="#3B82F6" />

    <text x="1104" y="1520" font-family="'Segoe UI', Roboto, Helvetica, sans-serif" font-weight="800" font-size="110" fill="#FFFFFF" text-anchor="middle" letter-spacing="8">SahelMesh</text>
    <text x="1104" y="1610" font-family="'Segoe UI', Roboto, Helvetica, sans-serif" font-weight="600" font-size="42" fill="#00FFFF" text-anchor="middle" letter-spacing="4" opacity="0.9">OFFLINE EMERGENCY MESH NETWORK</text>
</svg>
