<svg xmlns="http://www.w3.org/2000/svg" viewBox="0 0 1024 1024" width="1024" height="1024">
    <defs>
        <linearGradient id="bgGrad" x1="0%" y1="0%" x2="100%" y2="100%">
            <stop offset="0%" stop-color="#0B1528" />
            <stop offset="50%" stop-color="#070E1A" />
            <stop offset="100%" stop-color="#020408" />
        </linearGradient>
        
        <linearGradient id="primaryGrad" x1="0%" y1="100%" x2="100%" y2="0%">
            <stop offset="0%" stop-color="#3B82F6" />
            <stop offset="100%" stop-color="#00FFFF" />
        </linearGradient>

        <radialGradient id="glow" cx="50%" cy="50%" r="50%">
            <stop offset="0%" stop-color="#00FFFF" stop-opacity="0.3" />
            <stop offset="100%" stop-color="#00FFFF" stop-opacity="0" />
        </radialGradient>
        
        <filter id="dropShadow" x="-20%" y="-20%" width="140%" height="140%">
            <feDropShadow dx="0" dy="16" stdDeviation="24" flood-color="#000000" flood-opacity="0.6"/>
        </filter>
    </defs>

    <rect width="1024" height="1024" fill="url(#bgGrad)"/>

    <g stroke="#3B82F6" stroke-width="3" opacity="0.25" stroke-dasharray="8,8">
        <line x1="512" y1="180" x2="220" y2="360" />
        <line x1="512" y1="180" x2="804" y2="360" />
        <line x1="220" y1="360" x2="220" y2="680" />
        <line x1="804" y1="360" x2="804" y2="680" />
        <line x1="220" y1="680" x2="512" y2="844" />
        <line x1="804" y1="680" x2="512" y2="844" />
        <line x1="512" y1="180" x2="512" y2="844" />
        <line x1="220" y1="360" x2="804" y2="680" />
        <line x1="220" y1="680" x2="804" y2="360" />
    </g>

    <g fill="#3B82F6" opacity="0.5">
        <circle cx="512" cy="180" r="16" fill="#00FFFF" />
        <circle cx="220" cy="360" r="12" />
        <circle cx="804" cy="360" r="12" />
        <circle cx="220" cy="680" r="12" />
        <circle cx="804" cy="680" r="12" />
        <circle cx="512" cy="844" r="16" fill="#00FFFF" />
    </g>

    <circle cx="512" cy="512" r="280" fill="url(#glow)" />

    <circle cx="512" cy="512" r="200" fill="#0F2347" fill-opacity="0.4" stroke="url(#primaryGrad)" stroke-width="6" filter="url(#dropShadow)" />

    <g fill="none" stroke="url(#primaryGrad)" stroke-width="28" stroke-linecap="round" stroke-linejoin="round">
        <path d="M 440 420 C 360 420, 360 500, 440 510 C 520 520, 520 600, 440 604" />
        <path d="M 550 604 L 550 420 L 610 510 L 670 420 L 670 604" />
    </g>

    <circle cx="440" cy="420" r="12" fill="#00FFFF" />
    <circle cx="440" cy="604" r="12" fill="#3B82F6" />
    <circle cx="550" cy="420" r="12" fill="#3B82F6" />
    <circle cx="670" cy="420" r="12" fill="#00FFFF" />
    <circle cx="670" cy="604" r="12" fill="#3B82F6" />
</svg>
